<svg width="243" height="243" viewBox="0 0 243 243" fill="none" xmlns="http://www.w3.org/2000/svg">
<circle cx="121.5" cy="121.5" r="121.5" fill="#653436"/>
<path d="M140.41 183.945V169.814C133.288 178.827 122.484 183.945 111.189 183.945C103.085 184.432 94.981 181.51 89.0859 175.905C83.1907 170.305 80 162.753 80 154.47C80 121.581 129.606 115.981 129.606 101.119C129.606 86.2578 83.927 99.415 83.927 77.4878C83.927 66.283 96.2082 58 113.398 58C137.711 58 152.687 74.566 152.687 99.415V159.344C152.687 170.062 156.369 176.153 162.264 174.206L163 176.64L140.406 183.949L140.41 183.945ZM92.2766 153.496C91.7857 160.318 93.9946 167.14 98.6626 172.253C103.085 177.371 109.712 180.536 116.589 180.78C126.411 180.293 135.252 174.936 140.41 166.405V94.7843C140.41 74.8095 130.343 60.4348 113.889 60.4348C108.976 59.9479 104.067 61.4088 100.135 64.574C96.4537 67.9874 93.9946 72.3701 93.7492 77.4878C93.7492 97.9495 132.302 85.0404 132.302 101.363C132.302 117.685 92.2766 123.777 92.2766 153.496Z" fill="#C2B29E"/>
</svg>
